<svg width="20" height="20" viewBox="0 0 20 20" fill="none" xmlns="http://www.w3.org/2000/svg">
<path d="M10 20C4.50746 20 0 15.5224 0 10C0 4.50746 4.50746 0 10 0C15.5224 0 20 4.47761 20 10C20 15.5224 15.5522 20 10 20ZM10 17.8806C14.3881 17.8806 17.8806 14.3881 17.8806 10C17.8806 5.61194 14.4179 2.11941 10 2.11941C5.61194 2.11941 2.11941 5.67164 2.11941 10C2.11941 14.3881 5.64179 17.8806 10 17.8806ZM7.31343 15.8209L5.37314 14.4179L8.20897 10.6567L3.70151 9.25374L4.44777 6.98508L8.89553 8.53731L8.80597 3.8209H11.194L11.1045 8.53731L15.5523 6.98508L16.2985 9.25374L11.7911 10.6567L14.6269 14.4179L12.6866 15.8209L10 11.9403L7.31343 15.8209Z" fill="#4DA3FF"/>
</svg>
